# xmcd
#
# Track frame offsets: 
#        183
#        11993
#        25445
#        36963
#        47683
#        60310
#        72955
#        86393
#        99540
#        110203
#        123528
#        136955
#        149585
#        163158
#        182808
#        197515
#        210300
#        220008
#
# Disc length: 3099 seconds
#
# Revision: 4
# Processed by: cddbd v1.5.2PL0 Copyright (c) Steve Scherf et al.
# Submitted via: ExactAudioCopy v0.99pb5
#
DISCID=0b0c1912
DTITLE=Etta James - The Best of Etta James
DYEAR=1990
DGENRE=Blues
TTITLE0=I'd Rather Go Blind
TTITLE1=At Last
TTITLE2=Stop the Wedding
TTITLE3=Tell Mama (Tell Daddy)
TTITLE4=Dance With Me Henry
TTITLE5=Something's Got a Hold On Me
TTITLE6=Trust In Me
TTITLE7=All I Could Do Was Cry
TTITLE8=Steal Away
TTITLE9=Pushover
TTITLE10=Fool That I Am
TTITLE11=Security
TTITLE12=My Dearest Darling
TTITLE13=Baby, What You Want Me To Do
TTITLE14=A Sunday Kind of Love
TTITLE15=Spoonful
TTITLE16=Waiting For Charlie To Come Home
TTITLE17=Next Door To the Blues
EXTD=LABEL =Telstar Records\nID =TSD-3505\nUPC =05109-13505-29\nCOP
EXTD=YRIGHT =1990
EXTT0=
EXTT1=
EXTT2=
EXTT3=
EXTT4=Duet With Richard Berry
EXTT5=
EXTT6=
EXTT7=
EXTT8=
EXTT9=
EXTT10=
EXTT11=
EXTT12=
EXTT13=
EXTT14=
EXTT15=Duet With Harvey Fuqua
EXTT16=
EXTT17=
PLAYORDER=
